# 3ds Max Wavefront OBJ Exporter v0.99 - (c)2007 guruware
# File Created: 20.03.2023 16:23:07

mtllib low.mtl

#
# object Paint
#

v  0.0000 11.0402 0.1490
v  0.0000 11.0408 -0.1565
v  -7.7422 11.0079 -0.1589
v  -7.7419 11.0101 0.1478
v  -7.7430 5.5203 -0.1707
v  -7.7459 5.5203 0.1564
v  -7.0878 10.3783 0.1707
v  -7.1043 5.5203 0.1688
v  0.0000 10.3992 0.1704
v  -7.0731 10.3686 0.0522
v  0.0000 10.3776 0.0554
v  -7.0791 5.5203 0.0522
v  0.0000 5.5203 0.0522
v  0.0000 5.5203 -0.1330
v  -7.7419 0.0306 0.1478
v  -7.7422 0.0328 -0.1589
v  0.0000 -0.0001 -0.1565
v  0.0000 0.0005 0.1490
v  7.7419 11.0101 0.1478
v  7.7422 11.0079 -0.1589
v  7.7422 0.0328 -0.1589
v  7.7419 0.0306 0.1478
v  7.7459 5.5203 0.1564
v  7.7430 5.5203 -0.1707
v  -7.0878 0.6623 0.1707
v  7.1043 5.5203 0.1688
v  7.0878 10.3783 0.1707
v  7.0878 0.6623 0.1707
v  0.0000 0.6415 0.1704
v  0.0000 0.6631 0.0554
v  -7.0731 0.6721 0.0522
v  7.0731 10.3686 0.0522
v  7.0731 0.6721 0.0522
v  7.0791 5.5203 0.0522
# 34 vertices

vn -0.0002 1.0000 0.0017
vn -0.0039 1.0000 -0.0070
vn -0.0039 1.0000 -0.0072
vn -1.0000 0.0003 -0.0087
vn -1.0000 0.0002 0.0004
vn -1.0000 0.0002 0.0008
vn -0.0163 0.0188 0.9997
vn -0.0172 0.0184 0.9997
vn -0.0199 -0.0009 0.9998
vn 0.0001 0.0335 0.9994
vn 0.0029 -0.9965 0.0833
vn -0.0009 -0.9829 0.1844
vn 0.0029 -0.9966 0.0823
vn 0.9775 0.0011 0.2108
vn 0.9922 -0.0034 0.1246
vn 0.9924 -0.0034 0.1232
vn 0.0001 -0.0005 1.0000
vn -0.0004 0.0000 1.0000
vn -0.0001 -0.0001 1.0000
vn 0.0000 0.0000 1.0000
vn 0.0035 -0.0013 -1.0000
vn 0.0003 0.0021 -1.0000
vn 0.0014 -0.0030 -1.0000
vn 0.0000 0.0000 -1.0000
vn -0.0042 -1.0000 -0.0070
vn -0.0042 -1.0000 -0.0072
vn 0.0002 -1.0000 0.0017
vn 0.0042 1.0000 -0.0070
vn 0.0042 1.0000 -0.0072
vn 0.0039 -1.0000 -0.0070
vn 0.0039 -1.0000 -0.0072
vn -1.0000 -0.0007 0.0004
vn -1.0000 -0.0007 0.0008
vn 1.0000 0.0007 0.0004
vn 1.0000 0.0007 0.0008
vn 1.0000 -0.0003 -0.0087
vn 1.0000 -0.0002 0.0004
vn 1.0000 -0.0002 0.0008
vn -0.0168 -0.0176 0.9997
vn -0.0175 -0.0181 0.9997
vn 0.0199 0.0009 0.9998
vn 0.0168 0.0176 0.9997
vn 0.0175 0.0181 0.9997
vn 0.0163 -0.0188 0.9997
vn 0.0172 -0.0184 0.9997
vn -0.0001 -0.0335 0.9994
vn 0.0012 0.9965 0.0833
vn 0.0009 0.9829 0.1844
vn 0.0012 0.9966 0.0821
vn -0.0012 -0.9965 0.0833
vn -0.0012 -0.9966 0.0821
vn -0.0029 0.9965 0.0833
vn -0.0029 0.9966 0.0823
vn 0.9922 0.0012 0.1245
vn 0.9924 0.0012 0.1231
vn -0.9922 -0.0012 0.1245
vn -0.9924 -0.0012 0.1231
vn -0.9775 -0.0011 0.2108
vn -0.9922 0.0034 0.1246
vn -0.9924 0.0034 0.1232
vn -0.0002 0.0003 1.0000
vn -0.0001 0.0005 1.0000
vn 0.0001 0.0001 1.0000
vn 0.0002 -0.0003 1.0000
vn 0.0004 -0.0000 1.0000
vn -0.0014 0.0030 -1.0000
vn 0.0031 0.0004 -1.0000
vn -0.0031 -0.0004 -1.0000
vn -0.0035 0.0013 -1.0000
vn -0.0003 -0.0021 -1.0000
# 70 vertex normals

vt 0.2084 0.2916 0.0000
vt 0.2084 0.2844 0.0000
vt 0.3908 0.2843 0.0000
vt 0.3907 0.2915 0.0000
vt 0.3905 0.1550 0.0000
vt 0.3982 0.1550 0.0000
vt 0.3980 0.2843 0.0000
vt 0.4134 0.2694 0.0000
vt 0.4133 0.1550 0.0000
vt 0.3754 0.3066 0.0000
vt 0.2084 0.3067 0.0000
vt 0.3750 0.3094 0.0000
vt 0.2084 0.3094 0.0000
vt 0.4161 0.1550 0.0000
vt 0.4163 0.2692 0.0000
vt 0.4977 0.9995 0.0000
vt 0.0005 0.9983 0.0000
vt 0.0005 0.6575 0.0000
vt 0.4981 0.6581 0.0000
vt 0.2084 0.1550 0.0000
vt 0.3907 0.0184 0.0000
vt 0.3907 0.0256 0.0000
vt 0.2084 0.0255 0.0000
vt 0.2084 0.0183 0.0000
vt 0.0260 0.2915 0.0000
vt 0.0260 0.2843 0.0000
vt 0.0260 0.0256 0.0000
vt 0.0260 0.0184 0.0000
vt 0.3980 0.0256 0.0000
vt 0.0188 0.2843 0.0000
vt 0.0186 0.1550 0.0000
vt 0.0263 0.1550 0.0000
vt 0.0188 0.0256 0.0000
vt 0.4134 0.0405 0.0000
vt 0.0035 0.1550 0.0000
vt 0.0033 0.2694 0.0000
vt 0.0033 0.0405 0.0000
vt 0.2084 0.0033 0.0000
vt 0.3754 0.0033 0.0000
vt 0.0414 0.3066 0.0000
vt 0.0414 0.0033 0.0000
vt 0.2084 0.0005 0.0000
vt 0.3750 0.0005 0.0000
vt 0.0417 0.3094 0.0000
vt 0.0417 0.0005 0.0000
vt 0.4163 0.0407 0.0000
vt 0.0005 0.2692 0.0000
vt 0.0006 0.1550 0.0000
vt 0.0005 0.0407 0.0000
vt 0.0013 0.3167 0.0000
vt 0.4985 0.3167 0.0000
vt 0.9957 0.6587 0.0000
vt 0.9948 0.9995 0.0000
vt 0.9957 0.3179 0.0000
# 54 texture coords

o Paint
g Paint
usemtl Paint
s 1
f -34/-54/-70 -33/-53/-70 -32/-52/-69 
f -32/-52/-69 -31/-51/-68 -34/-54/-70 
s 2
f -30/-50/-67 -29/-49/-67 -31/-48/-66 
f -31/-48/-66 -32/-52/-65 -30/-50/-67 
s 4
f -28/-47/-64 -31/-48/-63 -29/-49/-62 
f -29/-49/-62 -27/-46/-62 -28/-47/-64 
f -34/-54/-61 -31/-51/-63 -28/-45/-64 
f -28/-45/-64 -26/-44/-61 -34/-54/-61 
s 1
f -25/-43/-60 -24/-42/-59 -26/-44/-59 
f -26/-44/-59 -28/-45/-58 -25/-43/-60 
s 2
f -27/-46/-57 -23/-41/-57 -25/-40/-56 
f -25/-40/-56 -28/-47/-55 -27/-46/-57 
s 4
f -24/-39/-54 -25/-38/-53 -23/-37/-52 
f -23/-37/-52 -22/-36/-51 -24/-39/-54 
f -30/-50/-50 -32/-52/-49 -33/-53/-48 
f -33/-53/-48 -21/-35/-47 -30/-50/-50 
s 1
f -20/-34/-46 -19/-33/-45 -18/-32/-44 
f -18/-32/-44 -17/-31/-44 -20/-34/-46 
f -16/-30/-43 -15/-29/-42 -33/-53/-70 
f -33/-53/-70 -34/-54/-70 -16/-30/-43 
f -17/-31/-44 -18/-32/-44 -14/-28/-41 
f -14/-28/-41 -13/-27/-40 -17/-31/-44 
s 2
f -19/-33/-39 -20/-26/-38 -29/-49/-67 
f -29/-49/-67 -30/-50/-67 -19/-33/-39 
f -15/-29/-37 -16/-25/-36 -12/-24/-35 
f -12/-24/-35 -11/-23/-35 -15/-29/-37 
f -11/-23/-35 -12/-24/-35 -13/-22/-34 
f -13/-22/-34 -14/-28/-33 -11/-23/-35 
s 4
f -27/-46/-62 -29/-49/-62 -20/-26/-32 
f -20/-26/-32 -10/-21/-31 -27/-46/-62 
f -9/-20/-30 -12/-24/-30 -16/-25/-29 
f -16/-25/-29 -8/-19/-28 -9/-20/-30 
f -7/-18/-27 -13/-22/-26 -12/-24/-30 
f -12/-24/-30 -9/-20/-30 -7/-18/-27 
f -6/-17/-25 -10/-16/-31 -20/-34/-32 
f -20/-34/-32 -17/-31/-25 -6/-17/-25 
f -26/-44/-61 -8/-15/-28 -16/-30/-29 
f -16/-30/-29 -34/-54/-61 -26/-44/-61 
f -17/-31/-25 -13/-27/-26 -7/-14/-27 
f -7/-14/-27 -6/-17/-25 -17/-31/-25 
s 1
f -10/-16/-24 -6/-17/-23 -5/-13/-23 
f -5/-13/-23 -4/-12/-22 -10/-16/-24 
f -8/-15/-21 -26/-44/-59 -24/-42/-59 
f -24/-42/-59 -3/-11/-20 -8/-15/-21 
f -2/-10/-19 -5/-13/-23 -6/-17/-23 
f -6/-17/-23 -7/-14/-18 -2/-10/-19 
s 2
f -10/-21/-17 -4/-9/-16 -23/-41/-57 
f -23/-41/-57 -27/-46/-57 -10/-21/-17 
f -8/-19/-15 -3/-8/-14 -1/-7/-13 
f -1/-7/-13 -9/-20/-13 -8/-19/-15 
f -9/-20/-13 -1/-7/-13 -2/-6/-12 
f -2/-6/-12 -7/-18/-11 -9/-20/-13 
s 4
f -22/-36/-51 -23/-37/-52 -4/-5/-10 
f -4/-5/-10 -5/-4/-9 -22/-36/-51 
f -22/-36/-51 -1/-3/-8 -3/-2/-7 
f -3/-2/-7 -24/-39/-54 -22/-36/-51 
f -5/-4/-9 -2/-1/-6 -1/-3/-8 
f -1/-3/-8 -22/-36/-51 -5/-4/-9 
f -21/-35/-47 -18/-32/-5 -19/-33/-4 
f -19/-33/-4 -30/-50/-50 -21/-35/-47 
f -21/-35/-47 -33/-53/-48 -15/-29/-3 
f -15/-29/-3 -11/-23/-2 -21/-35/-47 
f -11/-23/-2 -14/-28/-1 -18/-32/-5 
f -18/-32/-5 -21/-35/-47 -11/-23/-2 
# 64 faces

